<?xml version="1.0" ?><!DOCTYPE svg  PUBLIC '-//W3C//DTD SVG 1.1//EN'  'http://www.w3.org/Graphics/SVG/1.1/DTD/svg11.dtd'><svg enable-background="new 0 0 512 512" height="512px" id="Layer_1" version="1.1" viewBox="0 0 512 512" width="512px" xml:space="preserve" xmlns="http://www.w3.org/2000/svg" xmlns:xlink="http://www.w3.org/1999/xlink"><path fill="white" d="M177.092,353.323c-3.281-3.554-4.882-8.323-4.809-14.35h-22.402c1.027,12.52,4.921,21.984,11.6,28.513  c6.681,6.447,15.994,10.07,27.862,10.953v13.547h9.388v-13.547c7.939-0.573,14.468-2.139,19.58-4.771  c5.077-2.674,9.16-5.689,12.177-9.084c3.015-3.397,5.112-6.872,6.297-10.417c1.143-3.512,1.755-6.527,1.755-8.858  c0-2.629-0.192-5.688-0.612-9.084c-0.343-3.359-1.524-6.718-3.548-10.116c-2.022-3.395-5.15-6.672-9.389-9.806  c-4.239-3.128-10.302-5.764-18.125-7.901c-1.49-0.456-2.904-0.802-4.238-1.11c-1.338-0.301-2.638-0.649-3.896-0.99v-28.123  c3.588,0,6.679,1.483,9.238,4.461c2.559,2.941,3.854,6.605,3.971,10.805h22.594c-0.308-5.532-1.489-10.304-3.511-14.313  c-1.983-4.049-4.582-7.408-7.787-10.155c-3.169-2.635-6.872-4.771-11.066-6.296c-4.162-1.564-8.667-2.594-13.438-3.093v-12.327  h-9.388v12.327c-4.771,0.309-9.422,1.222-13.852,2.787c-4.429,1.489-8.399,3.668-11.755,6.492c-3.435,2.82-6.145,6.298-8.208,10.456  c-2.061,4.117-3.093,8.886-3.093,14.312c0,5.264,0.881,9.69,2.67,13.241c1.834,3.548,4.241,6.563,7.253,8.931  c3.02,2.404,6.451,4.279,10.266,5.727c3.819,1.453,7.711,2.674,11.604,3.74c1.068,0.194,2.064,0.5,2.976,0.729  c0.878,0.267,1.604,0.49,2.138,0.721v33.244C184.458,359.014,180.374,356.8,177.092,353.323 M198.731,329.432  c6.261,1.675,10.688,3.588,13.286,5.646c2.593,2.063,3.892,5.195,3.892,9.313c0,2.52-0.535,4.736-1.568,6.61  c-1.068,1.828-2.441,3.394-4.083,4.687c-1.637,1.268-3.513,2.257-5.57,2.941c-2.06,0.689-4.048,1.11-5.956,1.337V329.432  L198.731,329.432z M178.35,299.509c-2.212-1.949-3.318-4.618-3.318-8.126c0-2.255,0.382-4.164,1.182-5.803  c0.804-1.643,1.873-3.054,3.284-4.125c1.333-1.104,2.899-1.942,4.617-2.478c1.679-0.536,3.436-0.8,5.228-0.8v25.952  C184.23,302.982,180.604,301.383,178.35,299.509 M124.996,84.707v30.226h353.763V301.8H512V84.707H124.996z M0,427.294h387.01  V210.162H0V427.294z M193.504,231.309c37.365,0,67.63,38.583,67.63,86.215c0,47.597-30.265,86.177-67.63,86.177  c-37.363,0-67.631-38.58-67.631-86.177C125.875,269.892,156.141,231.309,193.504,231.309 M62.325,177.606h353.766v186.858h33.243  V147.378H62.325V177.606z"/></svg>
