<?xml version="1.0" ?><!DOCTYPE svg  PUBLIC '-//W3C//DTD SVG 1.1//EN'  'http://www.w3.org/Graphics/SVG/1.1/DTD/svg11.dtd'><svg enable-background="new 0 0 512 512" height="512px" id="Layer_1" version="1.1" viewBox="0 0 512 512" width="512px" xml:space="preserve" xmlns="http://www.w3.org/2000/svg" xmlns:xlink="http://www.w3.org/1999/xlink"><path fill="white" d="M290.733,286.108c-5.068-4.051-13.696-7.719-25.917-11.05v59.594c3.71-0.415,7.606-1.253,11.653-2.651  c4.052-1.319,7.645-3.214,10.858-5.752c3.216-2.42,5.864-5.481,7.911-9.157c2.077-3.594,3.103-7.861,3.103-12.861  C298.339,296.135,295.802,290.116,290.733,286.108 M227.282,181.486c-2.687,2.203-4.807,4.886-6.358,8.104  c-1.549,3.217-2.31,6.962-2.31,11.276c0,6.847,2.122,12.146,6.475,15.891c4.35,3.666,11.501,6.696,21.415,9v-50.623  c-3.52,0-6.926,0.531-10.216,1.555C232.958,177.741,230.01,179.331,227.282,181.486 M255.959,0.01  C114.606,0.01,0.001,114.597,0.001,255.99c0,141.387,114.605,256,255.958,256c141.396,0,256.041-114.613,256.041-256  C512,114.598,397.356,0.01,255.959,0.01 M255.959,475.286c-120.884,0-219.257-98.412-219.257-219.295  c0-120.923,98.373-219.296,219.257-219.296c120.928,0,219.302,98.374,219.302,219.296  C475.261,376.874,376.884,475.286,255.959,475.286 M256,76.515c-99.13,0-179.457,80.381-179.457,179.475  S156.869,435.446,256,435.446c99.091,0,179.415-80.362,179.415-179.457C435.414,156.896,355.093,76.515,256,76.515 M339.013,323.339  c-2.271,6.919-6.356,13.696-12.262,20.315c-5.902,6.628-13.81,12.525-23.759,17.704c-9.914,5.153-22.663,8.25-38.177,9.279v26.408  h-18.312v-26.408c-23.158-1.634-41.243-8.781-54.295-21.415c-13.018-12.604-20.581-31.147-22.662-55.505h43.774  c-0.225,11.759,2.875,21.071,9.306,27.923c6.398,6.843,14.379,11.155,23.878,13.013v-64.814c-1.021-0.452-2.42-0.941-4.162-1.401  c-1.742-0.569-3.672-0.982-5.752-1.437c-7.644-2.041-15.21-4.502-22.663-7.3c-7.417-2.802-14.114-6.546-20.016-11.162  c-5.901-4.661-10.595-10.481-14.149-17.368c-3.482-6.967-5.22-15.552-5.22-25.921c0-10.552,2.003-19.863,6.016-27.962  c4.047-8.056,9.382-14.794,16.003-20.276c6.623-5.489,14.263-9.764,22.966-12.751c8.702-2.992,17.67-4.805,26.977-5.446v-23.879  h18.312v23.879c9.311,1.091,18.047,3.061,26.218,6.047c8.176,3.033,15.364,7.159,21.607,12.452  c6.165,5.256,11.274,11.842,15.173,19.677c3.932,7.871,6.203,17.214,6.847,27.963h-44.079c-0.189-8.289-2.762-15.327-7.758-21.155  c-4.953-5.753-10.971-8.666-18.008-8.666v54.938c2.497,0.602,5.034,1.21,7.604,1.856c2.609,0.641,5.333,1.36,8.25,2.194  c15.285,4.124,27.09,9.265,35.374,15.36c8.246,6.095,14.377,12.449,18.275,19.073c3.937,6.657,6.282,13.237,6.998,19.862  c0.721,6.658,1.063,12.521,1.063,17.67C342.38,310.664,341.281,316.413,339.013,323.339"/></svg>
